<svg xmlns="http://www.w3.org/2000/svg" width="24.232" height="26" viewBox="0 0 24.232 26">
  <path id="icons8-phone" d="M22.7,18.288c-1.569-1.344-3.167-2.16-4.716-.816l-.927.809c-.678.591-1.938,3.341-6.809-2.267S8.27,9.545,8.952,8.962l.931-.812c1.542-1.344.959-3.036-.155-4.78l-.67-1.054C7.941.58,6.72-.562,5.175.778l-.836.733A7.83,7.83,0,0,0,1.279,6.7c-.559,3.69,1.2,7.919,5.236,12.556s7.974,6.971,11.708,6.932a7.886,7.886,0,0,0,5.568-2.307l.836-.733c1.546-1.34.587-2.707-.987-4.05Z" transform="translate(-1.178 -0.191)"/>
</svg>
