<svg xmlns="http://www.w3.org/2000/svg" width="32.5" height="26" viewBox="0 0 32.5 26">
  <path id="icons8-important-mail" d="M5.25,4A3.225,3.225,0,0,0,2.625,5.349a1.185,1.185,0,0,0,.352,1.685l14.27,8.893a1.892,1.892,0,0,0,2.006,0L33.462,6.958a1.193,1.193,0,0,0,.3-1.746A3.221,3.221,0,0,0,31.25,4Zm28.463,6.64a.764.764,0,0,0-.4.121L19.253,19.625a1.9,1.9,0,0,1-2.006,0l-14.06-8.76A.777.777,0,0,0,2,11.522V26.75A3.249,3.249,0,0,0,5.25,30h26a3.249,3.249,0,0,0,3.25-3.25V11.417A.778.778,0,0,0,33.713,10.64Z" transform="translate(-2 -4)"/>
</svg>
