<svg xmlns="http://www.w3.org/2000/svg" width="42.138" height="26" viewBox="0 0 42.138 26">
  <path id="icons8-behance" d="M1,6.75v26H13.561c1.164,0,9.179-.236,9.179-7.554A6.4,6.4,0,0,0,18,18.608a5.594,5.594,0,0,0,3.514-5.4c0-1.965-.28-6.456-8.3-6.456ZM29.635,9.166v2.372h9.706V9.166ZM6.709,11.186h5.358c.505,0,3.909-.269,3.909,2.986,0,2.783-2.459,3.074-3.47,3.074h-5.8Zm28.02,2.5c-7.34,0-8.872,6.374-8.872,9.135,0,8.2,6.72,9.135,8.872,9.135,5.8,0,7.45-3.755,8.125-5.841H38.639A4.057,4.057,0,0,1,34.905,28.4c-3.92,0-4.26-3.063-4.26-4.436H43.118C43.371,19.223,41.3,13.689,34.73,13.689ZM34.6,17.247a3.528,3.528,0,0,1,2.679.966,4.745,4.745,0,0,1,1.1,2.767h-7.73a5.592,5.592,0,0,1,.22-1.142,3.367,3.367,0,0,1,.615-1.23,3.912,3.912,0,0,1,1.23-.966A4.043,4.043,0,0,1,34.6,17.247ZM6.709,21.155H12.9c1.23,0,4.128.192,4.128,3.733,0,3.431-3.651,3.426-4.216,3.426h-6.1Z" transform="translate(-1 -6.75)"/>
</svg>
