<svg id="Layer_1" data-name="Layer 1" xmlns="http://www.w3.org/2000/svg" viewBox="0 0 146.56 146.63"><defs><style>.cls-1{fill:#231f20;}</style></defs><title>roundt</title><path class="cls-1" d="M329.65,139.14l.2,5.78c.07,2.19,1.07,3.09,2.38,3s2.34-1,2.27-3.19l-.19-5.79,1.27,0,.19,5.7c.11,3-1.43,4.28-3.55,4.35s-3.55-1-3.65-4.05l-.19-5.76Z" transform="translate(-261.23 -138.94)"/><path class="cls-1" d="M347.41,140.16l-1.64,9.64-1.24-.21,1.63-9.64Z" transform="translate(-261.23 -138.94)"/><path class="cls-1" d="M368,147.19a19.4,19.4,0,0,1,2.42,1.17,5.64,5.64,0,0,1,2.8,3,4.5,4.5,0,0,1-.58,3.73,5.11,5.11,0,0,1-3.13,2.57,6,6,0,0,1-4.44-1,17.83,17.83,0,0,1-1.92-1.26Zm-3.27,8.1a8.23,8.23,0,0,0,1.07.71c2.33,1.36,4.35.79,5.68-1.49,1.18-2,.79-3.91-1.52-5.25a6.74,6.74,0,0,0-1.34-.63Z" transform="translate(-261.23 -138.94)"/><path class="cls-1" d="M383.21,164.72l-2.75-2.62L378,164.66l3.07,2.92-.73.76-4-3.78,6.74-7.09,3.83,3.64-.73.76-2.91-2.76-2.13,2.24,2.75,2.61Z" transform="translate(-261.23 -138.94)"/><path class="cls-1" d="M386.75,173.56a4.46,4.46,0,0,0,.75,2.23c.72,1.07,1.71,1.31,2.53.76s.89-1.24.57-2.62c-.43-1.64-.3-2.91.84-3.69s2.9-.45,4,1.12a4.48,4.48,0,0,1,.82,2.06l-1.05.29a3.9,3.9,0,0,0-.66-1.79c-.75-1.11-1.69-1.08-2.24-.71-.76.52-.8,1.26-.47,2.67.4,1.73.21,2.87-1,3.68s-2.95.65-4.25-1.25a5,5,0,0,1-.88-2.42Z" transform="translate(-261.23 -138.94)"/><path class="cls-1" d="M401.87,183.6l-8.95,3.91-.51-1.16,9-3.9Z" transform="translate(-261.23 -138.94)"/><path class="cls-1" d="M397.79,202.88a9.14,9.14,0,0,1-1.14-2.82,4.59,4.59,0,0,1,3.8-5.93,4.9,4.9,0,0,1,6,4.15,6.09,6.09,0,0,1,.06,2.47l-1.07-.08a5.09,5.09,0,0,0,0-2.2,3.65,3.65,0,0,0-4.65-3c-2.43.51-3.56,2.27-3.09,4.5a4.24,4.24,0,0,0,.6,1.59l2.85-.6-.4-1.94,1-.21.66,3.15Z" transform="translate(-261.23 -138.94)"/><path class="cls-1" d="M398,211.27l9.77.4,0,1.38L402.66,216a28.8,28.8,0,0,1-3.25,1.62v0c1.31-.06,2.5,0,4,0l4.09.17,0,1.19-9.77-.41.05-1.27,5.09-2.9a30,30,0,0,1,3.34-1.69l0-.05c-1.23,0-2.41,0-4-.06l-4.18-.17Z" transform="translate(-261.23 -138.94)"/><path class="cls-1" d="M399.27,233.2l1-3.66-3.39-.95-1.14,4.08-1-.29,1.48-5.29,9.41,2.64-1.42,5.08-1-.28,1.08-3.87-3-.84-1,3.66Z" transform="translate(-261.23 -138.94)"/><path class="cls-1" d="M400.17,244.45a13.85,13.85,0,0,1-1,2.23,4,4,0,0,1-2.05,2.11,2.4,2.4,0,0,1-2-.21,2.56,2.56,0,0,1-1.33-2.8l0,0a2.44,2.44,0,0,1-2.41.33,15.51,15.51,0,0,0-2.72-.61l.61-1.15a12.93,12.93,0,0,1,2.37.53c1.33.39,2,.17,2.6-.82l.57-1-3.73-2,.6-1.11Zm-4.52-1-.61,1.14a1.92,1.92,0,0,0,.59,2.82c1.11.6,2,.06,2.67-1.11a5.08,5.08,0,0,0,.49-1.15Z" transform="translate(-261.23 -138.94)"/><path class="cls-1" d="M372.83,262.88l1.31.16a4.06,4.06,0,0,1,1.48-2.69,2.77,2.77,0,0,1,4.07.19A3.21,3.21,0,0,1,380,264l0,0a3.33,3.33,0,0,1,1.93,1.06,2.36,2.36,0,0,1-.37,3.43,2,2,0,0,1-3-.21c-.66-.79-.73-1.8,0-3.38l0,0-3.57-.58a7.07,7.07,0,0,0,1.1,2.8l-.89.74a7.32,7.32,0,0,1-1.23-3.67l-2.34-.3Zm2.25.32c.86.11,2.46.33,4.09.6a2.4,2.4,0,0,0-.3-2.34,1.92,1.92,0,0,0-2.8-.23A2.74,2.74,0,0,0,375.08,263.2Zm6.1,2.68a2.69,2.69,0,0,0-1.69-.88c-.4,1.07-.55,1.88,0,2.51a1.14,1.14,0,0,0,1.67.25A1.26,1.26,0,0,0,381.18,265.88Z" transform="translate(-261.23 -138.94)"/><path class="cls-1" d="M358.14,281.61,357,277.7l-4.52,1.38,1.19,3.91-1.22.38L349.54,274l1.22-.37L352.1,278l4.53-1.38-1.34-4.39,1.2-.37,2.86,9.35Z" transform="translate(-261.23 -138.94)"/><path class="cls-1" d="M339.75,284.23l3-.19.07,1.07-7.23.46-.07-1.07,3-.19-.55-8.69,1.27-.08Z" transform="translate(-261.23 -138.94)"/><path class="cls-1" d="M318.57,278.23c-.17,1.36-.39,3-.62,4.18h0c.54-1.07,1.16-2.19,1.89-3.43l2.56-4.35.94.17.71,4.87c.21,1.44.36,2.75.42,3.94h0c.25-1.19.62-2.79,1-4.22l1-4.07,1.19.22-2.45,9.49-1.59-.3-.78-4.95c-.18-1.26-.31-2.37-.37-3.42h0c-.42.93-1,1.92-1.61,3.06l-2.58,4.33-1.58-.29,1.18-9.73,1.21.22Z" transform="translate(-261.23 -138.94)"/><path class="cls-1" d="M306,279.79l-1.14-.52,3.64-7.93-3.8-1.74.44-1,4.95,2.28Z" transform="translate(-261.23 -138.94)"/><path class="cls-1" d="M283.87,265.17a18.53,18.53,0,0,1-2-1.82,5.6,5.6,0,0,1-1.83-3.71,4.47,4.47,0,0,1,1.6-3.41,5.15,5.15,0,0,1,3.73-1.59,6,6,0,0,1,4,2.17c.61.66,1.1,1.24,1.49,1.75Zm5.42-6.86a8.31,8.31,0,0,0-.82-1c-1.86-2-4-2-5.88-.17-1.68,1.57-1.85,3.52,0,5.46a7,7,0,0,0,1.11,1Z" transform="translate(-261.23 -138.94)"/><path class="cls-1" d="M274.22,244l1.91,3.29,3.05-1.76-2.12-3.67.91-.53,2.76,4.76-8.47,4.9-2.64-4.58.91-.53,2,3.48,2.67-1.54-1.9-3.29Z" transform="translate(-261.23 -138.94)"/><path class="cls-1" d="M274.06,231.79l-8.39,5.94-.41-1.3,4.15-2.88c1.14-.79,2.17-1.49,3.18-2.08v0c-1.17.07-2.46,0-3.81,0l-5.1-.16-.4-1.29,10.37.45Z" transform="translate(-261.23 -138.94)"/><path class="cls-1" d="M266.42,215l.3,3.79,3.51-.28-.33-4.22,1.06-.08.43,5.48-9.75.76-.41-5.26,1-.09.32,4,3.08-.24-.3-3.79Z" transform="translate(-261.23 -138.94)"/><path class="cls-1" d="M261.56,204.87l.17-1.26,8.63,1.15.55-4.14,1,.14-.71,5.39Z" transform="translate(-261.23 -138.94)"/><path class="cls-1" d="M271.89,184.1c3.15,1.18,4.11,3.72,3.23,6.06s-3.41,3.41-6.18,2.38-4.13-3.61-3.22-6S269.18,183.09,271.89,184.1Zm-2.5,7.16c1.95.73,4.1.33,4.8-1.53s-.63-3.58-2.71-4.36c-1.82-.68-4.08-.44-4.81,1.53S267.38,190.51,269.39,191.26Z" transform="translate(-261.23 -138.94)"/><path class="cls-1" d="M272.47,173.37a15,15,0,0,1,1.21-2.11,4,4,0,0,1,2.22-1.81,2.64,2.64,0,0,1,2.17.45,2.89,2.89,0,0,1,1.3,1.8,4.06,4.06,0,0,1-.8,3.07,3.86,3.86,0,0,1-.65.79l3.24,2.21-.71,1Zm4.6,1.61a3.85,3.85,0,0,0,.68-.8c.85-1.26.77-2.44-.35-3.2s-2.09-.33-2.88.82a6,6,0,0,0-.59,1Z" transform="translate(-261.23 -138.94)"/><path class="cls-1" d="M289.76,160.89l-2.77,2.6,2.41,2.57,3.09-2.9.73.77-4,3.77-6.7-7.13,3.85-3.62.73.78-2.93,2.75,2.11,2.25,2.77-2.6Z" transform="translate(-261.23 -138.94)"/><path class="cls-1" d="M294.75,150.8a12.55,12.55,0,0,1,2-1.41,4,4,0,0,1,2.83-.76,2.4,2.4,0,0,1,1.61,1.2,2.58,2.58,0,0,1-.3,3.09l0,0a2.4,2.4,0,0,1,2.24,1,15.16,15.16,0,0,0,2,1.92l-1.12.66a11.84,11.84,0,0,1-1.76-1.67c-.93-1-1.64-1.18-2.65-.63l-1,.61,2.16,3.64-1.08.64Zm3.36,3.18,1.11-.65a1.93,1.93,0,0,0,.94-2.73c-.64-1.08-1.71-1.09-2.86-.42a4.94,4.94,0,0,0-1,.74Z" transform="translate(-261.23 -138.94)"/><path class="cls-1" d="M311.88,152.12a.86.86,0,0,1,.51-1.16.91.91,0,1,1-.51,1.16Z" transform="translate(-261.23 -138.94)"/></svg>